<svg width="422" height="377" viewBox="0 0 422 377" fill="none" xmlns="http://www.w3.org/2000/svg">
<g clip-path="url(#clip0_4_4068)">
<path d="M372.64 324.772C364.194 332.761 356.202 337.913 349.888 341.984C275.668 389.833 187.846 375.886 169.182 372.479C141.62 367.449 88.3433 357.727 49.8254 317.027C-8.44875 255.452 0.625427 158.443 45.8269 94.4058C54.0951 82.6922 97.7693 17.6795 186.537 7.25348C240.259 0.943842 302.88 13.6697 348.229 47.8075C443.421 119.466 436.644 264.228 372.64 324.772Z" fill="url(#paint0_linear_4_4068)"/>
<path d="M26.6551 2.66289C25.9754 0.778021 28.4214 -0.770912 30.189 0.41381C48.1387 12.442 92.2909 49.4418 91.6397 122.049C90.8227 213.145 115.802 243.804 144.261 261.155C144.261 261.155 107.462 255.387 80.8487 224.407C15.5081 148.343 38.7396 36.1763 26.6551 2.66289Z" fill="#91B3FA"/>
<path d="M42.5479 29.4667C45.8423 39.2622 48.92 49.1109 51.5925 59.0466C54.3227 68.9679 56.7168 78.9592 58.7609 89.003C60.762 99.0532 62.5529 109.135 63.8645 119.271C65.2268 129.401 66.1033 139.572 66.9435 149.787C67.8468 159.991 68.6921 170.276 70.7118 180.514C72.7169 190.733 76.1118 200.9 81.4735 210.209C82.8129 212.529 84.2047 214.835 85.7338 217.045C87.2179 219.282 88.8126 221.46 90.4502 223.611C93.7497 227.901 97.3719 232.001 101.316 235.84C109.227 243.503 118.431 250.077 128.331 255.425C129.372 255.988 130.725 255.686 131.352 254.749C131.967 253.83 131.653 252.642 130.655 252.066L130.648 252.062C128.281 250.7 125.934 249.315 123.665 247.841C122.516 247.12 121.406 246.355 120.28 245.609C119.187 244.826 118.06 244.081 116.995 243.268C112.676 240.082 108.611 236.627 104.85 232.92C97.2962 225.546 90.9298 217.119 85.7903 208.235C83.2755 203.765 81.1316 199.136 79.3917 194.376C77.6555 189.613 76.3239 184.724 75.302 179.762C73.2561 169.833 72.3258 159.66 71.341 149.462C70.3412 139.263 69.2585 129.019 67.7085 118.832C66.9489 113.738 66.0874 108.656 65.125 103.59C64.6602 101.055 64.1407 98.5286 63.6264 96.0016C63.0851 93.4791 62.5283 90.9595 61.949 88.4445C59.6103 78.3881 56.9313 68.4007 53.9047 58.5032C50.8255 48.6189 47.4553 38.8113 43.6704 29.1369C43.5621 28.8604 43.2251 28.7151 42.9174 28.8123C42.6186 28.907 42.4578 29.1968 42.5479 29.4667Z" fill="#BDD0FB"/>
<path d="M111.398 321.959C110.693 325.554 106.131 327.335 102.697 325.383C83.7505 314.615 33.2464 279.816 24.1031 210.765C16.3821 152.454 6.02836 121.495 0.244151 107.733C-0.978924 104.823 2.6434 102.202 5.55094 103.89C37.6286 122.52 136.935 191.68 111.398 321.959Z" fill="#7D97F4"/>
<path d="M105.984 322.839C105.911 322.901 105.83 322.958 105.742 323.008C105.003 323.431 104.022 323.234 103.552 322.57C103.02 321.817 50.1148 246.333 35.303 165.692C35.1608 164.916 35.7455 164.182 36.61 164.053C37.4747 163.925 38.2908 164.451 38.4339 165.228C53.1376 245.282 105.701 320.293 106.23 321.041C106.644 321.626 106.524 322.379 105.984 322.839Z" fill="#91B3FA"/>
<path d="M101.919 7.53512C91.6749 8.33558 83.8209 16.044 83.7917 25.2831C83.6134 81.7831 83.3191 276.667 87.4176 345.645C87.8519 352.952 94.5195 358.693 102.664 358.772C142.944 359.161 258.811 359.877 324.588 356.097C338.289 355.309 348.95 345.114 348.933 332.778C348.853 273.48 347.799 106.711 338.759 30.4831C337.676 21.3499 329.505 14.2208 319.313 13.5073C275.381 10.4317 158.718 3.09662 101.919 7.53512Z" fill="url(#paint1_linear_4_4068)"/>
<path d="M99.9609 40.0898C99.1698 88.4206 96.9176 249.197 100.849 308.537C101.424 317.21 108.922 324.057 118.181 324.347C156.301 325.541 254.053 327.851 309.754 322.344C319.784 321.352 327.45 313.541 327.717 304.082C329.111 254.761 332.874 105.016 329.053 46.34C328.443 36.9795 320.484 29.5106 310.507 28.9064C269.232 26.4074 163.243 20.6445 115.877 24.1887C106.985 24.8541 100.098 31.7226 99.9609 40.0898Z" fill="url(#paint2_linear_4_4068)"/>
<path d="M192.063 15.9385C192.096 17.2737 193.281 18.3521 194.767 18.3927C202.102 18.5929 222.764 19.1613 232 19.4603C233.821 19.5193 235.212 18.0222 234.828 16.4218C234.797 16.3713 234.56 14.3194 232.228 14.1737C225.98 13.7834 207.132 12.731 194.677 13.3767C192.12 13.5092 191.98 16.1228 192.063 15.9385Z" fill="url(#paint3_linear_4_4068)"/>
<path opacity="0.8" d="M162.164 148.281C189.776 148.281 212.16 128.169 212.16 103.359C212.16 78.5489 189.776 58.4365 162.164 58.4365C134.552 58.4365 112.168 78.5489 112.168 103.359C112.168 128.169 134.552 148.281 162.164 148.281Z" fill="white"/>
<mask id="mask0_4_4068" style="mask-type:luminance" maskUnits="userSpaceOnUse" x="117" y="63" width="90" height="81">
<path d="M162.165 143.366C186.755 143.366 206.69 125.454 206.69 103.359C206.69 81.2636 186.755 63.3519 162.165 63.3519C137.574 63.3519 117.639 81.2636 117.639 103.359C117.639 125.454 137.574 143.366 162.165 143.366Z" fill="white"/>
</mask>
<g mask="url(#mask0_4_4068)">
<path d="M162.358 110.673C173.134 110.673 181.87 102.823 181.87 93.1404C181.87 83.4575 173.134 75.6079 162.358 75.6079C151.581 75.6079 142.845 83.4575 142.845 93.1404C142.845 102.823 151.581 110.673 162.358 110.673Z" fill="url(#paint4_linear_4_4068)"/>
</g>
<mask id="mask1_4_4068" style="mask-type:luminance" maskUnits="userSpaceOnUse" x="117" y="63" width="90" height="81">
<path d="M162.165 143.366C186.755 143.366 206.69 125.454 206.69 103.359C206.69 81.2636 186.755 63.3519 162.165 63.3519C137.574 63.3519 117.639 81.2636 117.639 103.359C117.639 125.454 137.574 143.366 162.165 143.366Z" fill="white"/>
</mask>
<g mask="url(#mask1_4_4068)">
<path d="M132.719 145.789H194.884C198.696 145.789 200.979 141.364 198.927 137.987C193.646 129.299 182.599 116.536 163.466 117.112C145.025 117.667 134.095 129.196 128.601 137.464C126.268 140.974 128.647 145.789 132.719 145.789Z" fill="url(#paint5_linear_4_4068)"/>
</g>
<path d="M237.783 302.239H175.596C173.564 302.239 171.901 300.745 171.901 298.92V283.027C171.901 281.201 173.564 279.707 175.596 279.707H237.783C239.816 279.707 241.478 281.201 241.478 283.027V298.92C241.478 300.745 239.816 302.239 237.783 302.239Z" fill="url(#paint6_linear_4_4068)"/>
<g opacity="0.8">
<g opacity="0.8">
<path d="M284.333 198.116H144.04C142.925 198.116 142.013 197.296 142.013 196.295V187.53C142.013 186.529 142.925 185.709 144.04 185.709H284.333C285.447 185.709 286.36 186.529 286.36 187.53V196.295C286.359 197.296 285.447 198.116 284.333 198.116Z" fill="white"/>
<path d="M123.498 199.396C128.121 199.396 131.869 196.029 131.869 191.875C131.869 187.721 128.121 184.353 123.498 184.353C118.875 184.353 115.127 187.721 115.127 191.875C115.127 196.029 118.875 199.396 123.498 199.396Z" fill="white"/>
</g>
<g opacity="0.8">
<path d="M284.333 221.397H144.04C142.925 221.397 142.013 220.577 142.013 219.576V210.811C142.013 209.81 142.925 208.99 144.04 208.99H284.333C285.447 208.99 286.36 209.81 286.36 210.811V219.576C286.359 220.577 285.447 221.397 284.333 221.397Z" fill="white"/>
<path d="M131.768 216.363C132.508 212.263 129.409 208.399 124.846 207.734C120.282 207.068 115.983 209.853 115.242 213.953C114.501 218.054 117.6 221.917 122.164 222.583C126.727 223.248 131.027 220.464 131.768 216.363Z" fill="white"/>
</g>
<g opacity="0.8">
<path d="M284.333 244.677H144.04C142.925 244.677 142.013 243.858 142.013 242.856V234.092C142.013 233.09 142.925 232.271 144.04 232.271H284.333C285.447 232.271 286.36 233.09 286.36 234.092V242.856C286.359 243.858 285.447 244.677 284.333 244.677Z" fill="white"/>
<path d="M123.498 245.958C128.121 245.958 131.869 242.59 131.869 238.436C131.869 234.282 128.121 230.915 123.498 230.915C118.875 230.915 115.127 234.282 115.127 238.436C115.127 242.59 118.875 245.958 123.498 245.958Z" fill="white"/>
</g>
<path opacity="0.8" d="M284.333 267.958H144.04C142.925 267.958 142.013 267.139 142.013 266.137V257.373C142.013 256.371 142.925 255.552 144.04 255.552H284.333C285.447 255.552 286.36 256.371 286.36 257.373V266.137C286.359 267.139 285.447 267.958 284.333 267.958Z" fill="white"/>
<path opacity="0.8" d="M123.498 269.238C128.121 269.238 131.869 265.871 131.869 261.717C131.869 257.563 128.121 254.196 123.498 254.196C118.875 254.196 115.127 257.563 115.127 261.717C115.127 265.871 118.875 269.238 123.498 269.238Z" fill="white"/>
</g>
<path opacity="0.8" d="M227.295 173.868H117.253C116.264 173.868 115.455 173.141 115.455 172.252V163.077C115.455 162.189 116.264 161.462 117.253 161.462H227.295C228.284 161.462 229.093 162.189 229.093 163.077V172.252C229.093 173.141 228.284 173.868 227.295 173.868Z" fill="white"/>
<path d="M354.347 48.7798C354.052 44.6753 351.293 41.0394 347.158 39.2748L293.585 16.4134C290.155 14.9493 286.173 14.9493 282.742 16.4134L229.169 39.2748C225.034 41.0393 222.276 44.6753 221.98 48.7798C216.955 118.573 266.76 144.002 283.086 150.426C286.324 151.7 290.003 151.7 293.241 150.426C309.568 144.002 359.372 118.573 354.347 48.7798Z" fill="url(#paint7_linear_4_4068)"/>
<path d="M271.959 26.047C271.673 26.047 271.4 25.9029 271.27 25.6557C271.089 25.3138 271.251 24.9046 271.631 24.7427L284.29 19.3409C284.671 19.178 285.126 19.3236 285.306 19.6658C285.487 20.0077 285.325 20.4167 284.944 20.5787L272.286 25.9804C272.18 26.0255 272.069 26.047 271.959 26.047Z" fill="#91B3FA"/>
<path d="M226.077 63.7175C225.668 63.7175 225.329 63.4257 225.315 63.0553C225.146 58.5156 225.235 53.7831 225.58 48.9892C225.79 46.0657 227.759 43.4652 230.717 42.2024L266.755 26.8235C267.136 26.6611 267.591 26.8061 267.771 27.1484C267.952 27.4901 267.79 27.8993 267.41 28.0612L231.371 43.4402C228.913 44.4896 227.277 46.6498 227.102 49.0775C226.76 53.8269 226.672 58.5144 226.84 63.009C226.854 63.3874 226.524 63.7047 226.103 63.7171C226.095 63.7175 226.086 63.7175 226.077 63.7175Z" fill="#91B3FA"/>
<path d="M341.392 51.5037C341.333 50.4632 340.644 49.5344 339.596 49.0874L289.515 27.7157C288.66 27.3508 287.668 27.3508 286.813 27.7157L236.732 49.0874C235.684 49.5344 234.995 50.4632 234.936 51.5037C233.455 77.5385 240.148 99.2613 254.842 116.098C266.046 128.934 279.151 135.813 286.831 139.022C287.677 139.376 288.651 139.376 289.497 139.022C297.177 135.813 310.283 128.934 321.486 116.098C336.18 99.2614 342.873 77.5384 341.392 51.5037Z" fill="url(#paint8_linear_4_4068)"/>
<path d="M256.361 80.0396C260.501 77.7347 265.942 78.9385 268.417 82.7087L280.058 100.44C281.224 102.215 284.143 102.038 285.032 100.138L311.223 44.1738C312.529 41.3818 317.131 42.2167 317.162 45.2446C317.334 62.1861 313.197 94.4847 283.806 122.082C283.806 122.082 267.054 116.646 252.982 90.5662C250.949 86.799 252.4 82.2452 256.361 80.0396Z" fill="url(#paint9_linear_4_4068)"/>
<path d="M363.106 359.928C363.106 359.928 364.065 364.807 364.535 369.636C364.719 371.523 363.099 373.162 360.993 373.241C353.835 373.509 338.526 374.03 333.032 373.809C332.206 373.776 331.666 373.017 331.972 372.326C332.228 371.748 332.722 371.28 333.351 371.021L358.64 360.577L363.106 359.928Z" fill="url(#paint10_linear_4_4068)"/>
<path d="M363.891 357.062L363.121 362.897C363.121 362.897 358.691 364.75 355.666 362.664L357.5 356.161L363.891 357.062Z" fill="url(#paint11_linear_4_4068)"/>
<path d="M363.312 247.357C363.645 248.881 365.099 323.401 356.233 356.795C356.089 357.34 356.396 357.902 356.973 358.114C358.333 358.613 360.999 359.336 364.193 359.432C365.183 359.462 366.069 358.884 366.349 358.031C368.883 350.283 381.026 311.463 382.61 274.379C384.38 232.942 382.61 272.968 382.61 272.968L381.572 247.354L363.312 247.357Z" fill="url(#paint12_linear_4_4068)"/>
<path d="M392.196 362.474C392.196 362.474 393.723 364.936 395.201 371.481C395.468 372.662 394.549 373.794 393.213 373.912C390.85 374.12 387.212 374.389 384.297 374.371C382.954 374.362 381.905 373.311 382.067 372.113C382.39 369.724 383.395 365.805 386.502 362.751L392.196 362.474Z" fill="url(#paint13_linear_4_4068)"/>
<path d="M393.537 354.968L391.737 363.793C391.737 363.793 389.957 364.982 386.435 364.12L387.294 354.625L393.537 354.968Z" fill="url(#paint14_linear_4_4068)"/>
<path d="M398.401 249.644C405.652 288.961 396.828 346.82 393.853 358.144C393.67 358.837 393.048 359.368 392.265 359.485C390.937 359.683 388.75 359.844 386.594 359.282C385.852 359.088 385.33 358.486 385.299 357.791C384.9 348.636 385.619 292.431 378.863 270.219C378.52 269.093 377.755 268.111 376.697 267.435L363.584 259.059L362.579 245.52L398.401 249.644Z" fill="url(#paint15_linear_4_4068)"/>
<path d="M352.2 175.146C373.929 174.823 397.904 180.272 397.904 180.272C404.381 214.229 399.036 253.396 399.036 253.396C382.214 257.36 363.239 250.973 363.239 250.973C360.443 236.78 347.398 196.835 347.398 196.835C336.781 195.651 328.036 192.899 320.833 189.26C326.327 183.539 328.917 176.258 330.042 171.954C337.724 174.099 345.498 175.245 352.2 175.146Z" fill="url(#paint16_linear_4_4068)"/>
<path d="M288.018 146.389C290.152 144.072 292.854 145.168 292.854 145.168C296.051 157.304 312.817 167.144 330.042 171.954C328.917 176.258 326.327 183.539 320.834 189.26C292.248 174.819 288.018 146.389 288.018 146.389Z" fill="url(#paint17_linear_4_4068)"/>
<path d="M288.536 146.978C288.313 147.616 290.899 148.587 292.422 145.978C292.475 144.727 293.321 139.37 292.49 138.351C288.061 132.926 279.473 126.124 279.473 126.124C278.022 127.411 279.217 128.675 279.217 128.675L283.383 132.574C282.512 133.989 281.449 135.183 280.951 136.895C280.574 138.19 280.804 139.575 281.533 140.755C282.264 141.939 283.262 143.477 284.205 144.681C285.99 146.961 288.536 146.978 288.536 146.978Z" fill="url(#paint18_linear_4_4068)"/>
<path d="M285.205 135.104L289.002 137.996L290.193 140.875L286.809 144.248C286.809 144.248 285.671 138.536 284.825 137.299C283.979 136.063 284.418 135.466 285.205 135.104Z" fill="url(#paint19_linear_4_4068)"/>
<path d="M389.57 199.177L397.904 180.272C397.904 180.272 418.199 192.663 421.537 208.373C417.702 208.627 410.724 209.523 403.894 212.622C402.393 205.204 389.57 199.177 389.57 199.177Z" fill="url(#paint20_linear_4_4068)"/>
<path d="M371.833 216.965C371.833 216.965 394.62 228.536 402.309 218.656C403.906 216.604 404.287 214.565 403.894 212.622C410.724 209.523 417.703 208.626 421.537 208.373C422.544 213.109 422.012 218.146 418.914 223.237C405.446 245.373 368.818 222.013 368.818 222.013L371.833 216.965Z" fill="url(#paint21_linear_4_4068)"/>
<path d="M374.571 231.604L362.135 192.581C361.994 192.138 361.573 191.815 361.064 191.762C358.811 191.525 352.282 190.862 344.743 190.289C335.663 189.599 325.118 189.04 318.817 189.516C317.921 189.583 317.379 190.435 317.778 191.159C321.361 197.673 336.101 224.169 343.482 232.849C343.726 233.136 344.104 233.304 344.507 233.301L373.361 233.06C374.201 233.053 374.802 232.329 374.571 231.604Z" fill="#BDD0FB"/>
<path d="M343.453 186.906L334.437 185.556C333.956 185.484 333.563 185.897 333.716 186.312L334.608 188.742C334.686 188.954 334.891 189.107 335.137 189.136L343.814 190.178C344.263 190.232 344.633 189.865 344.53 189.469L343.977 187.347C343.917 187.119 343.711 186.945 343.453 186.906Z" fill="#7D97F4"/>
<path d="M350.205 193.765L349.462 190.288C349.387 189.94 349.067 189.676 348.674 189.64L330.462 187.98C329.849 187.924 329.359 188.429 329.503 188.967L330.66 193.299C330.753 193.646 331.089 193.896 331.485 193.914L349.281 194.719C349.861 194.745 350.314 194.277 350.205 193.765Z" fill="#7D97F4"/>
<path d="M371.567 222.176C371.567 222.176 373.299 215.775 372.6 213.505C371.902 211.234 370.548 208.314 366.035 208.963C361.522 209.612 356.198 211.32 356.198 211.32C356.198 211.32 356.467 214.278 359.897 213.323L357.77 214.802C357.77 214.802 358.074 217.171 360.971 215.905L358.993 217.866C358.993 217.866 360.237 219.811 362.369 218.564C364.5 217.316 365.522 222.947 371.567 222.176Z" fill="url(#paint22_linear_4_4068)"/>
<path d="M374.21 159.296L381.123 177.261C381.238 177.558 381.102 177.888 380.795 178.04C378.91 178.976 372.12 181.683 363.938 177.021C363.086 176.536 362.505 175.744 362.376 174.844L360.137 159.296L374.21 159.296Z" fill="url(#paint23_linear_4_4068)"/>
<path d="M359.166 142.66C359.166 142.66 351.574 155.5 352.547 160.687C353.52 165.874 362.93 165.502 371.146 161.289L376.887 147.424L359.166 142.66Z" fill="url(#paint24_linear_4_4068)"/>
<path d="M370.783 154.48C370.449 154.347 370.325 153.98 370.526 153.706C371.134 152.871 372.274 151.167 372.638 149.676C372.638 149.676 374.002 148.891 369.164 147.85C364.325 146.809 357.11 145.194 355.593 141.494C354.115 137.886 358 128.813 364.198 136.042C364.434 136.317 364.896 136.323 365.131 136.048C366.147 134.86 368.819 132.393 372.528 133.888C375.999 135.288 376.39 137.573 376.342 138.725C376.328 139.064 376.665 139.327 377.036 139.263C378.791 138.963 383.002 138.705 384.967 142.586C386.586 145.783 385.534 147.593 384.575 148.478C384.265 148.765 384.401 149.237 384.827 149.354C385.98 149.671 387.469 150.55 387.32 152.978C387.114 156.334 382.938 156.038 381.749 155.885C381.554 155.86 381.358 155.92 381.226 156.051C380.206 157.065 375.612 161.37 370.641 161.889C370.21 161.934 369.877 161.552 370.018 161.183L372.169 155.564C372.269 155.303 372.13 155.016 371.849 154.905L370.783 154.48Z" fill="url(#paint25_linear_4_4068)"/>
<path d="M369.918 155.278C369.918 155.278 375.323 151.946 375.718 154.752C376.113 157.558 370.851 158.817 368.244 157.77L369.918 155.278Z" fill="url(#paint26_linear_4_4068)"/>
</g>
<defs>
<linearGradient id="paint0_linear_4_4068" x1="473.799" y1="486.589" x2="152.595" y2="42.6196" gradientUnits="userSpaceOnUse">
<stop stop-color="#DAE3FE"/>
<stop offset="1" stop-color="#E9EFFD"/>
</linearGradient>
<linearGradient id="paint1_linear_4_4068" x1="-182.271" y1="470.906" x2="250.668" y2="80.0601" gradientUnits="userSpaceOnUse">
<stop stop-color="#09005D"/>
<stop offset="1" stop-color="#1A0F91"/>
</linearGradient>
<linearGradient id="paint2_linear_4_4068" x1="30.0909" y1="408.378" x2="209.793" y2="122.526" gradientUnits="userSpaceOnUse">
<stop stop-color="#FEBBBA"/>
<stop offset="1" stop-color="#FF928E"/>
</linearGradient>
<linearGradient id="paint3_linear_4_4068" x1="251.302" y1="-136.484" x2="226.444" y2="-11.9881" gradientUnits="userSpaceOnUse">
<stop stop-color="#4042E2"/>
<stop offset="1" stop-color="#4F52FF"/>
</linearGradient>
<linearGradient id="paint4_linear_4_4068" x1="118.915" y1="228.021" x2="203.098" y2="-95.7254" gradientUnits="userSpaceOnUse">
<stop stop-color="#FE7062"/>
<stop offset="1" stop-color="#FF928E"/>
</linearGradient>
<linearGradient id="paint5_linear_4_4068" x1="134.246" y1="232.008" x2="218.43" y2="-91.739" gradientUnits="userSpaceOnUse">
<stop stop-color="#FE7062"/>
<stop offset="1" stop-color="#FF928E"/>
</linearGradient>
<linearGradient id="paint6_linear_4_4068" x1="245.504" y1="146.778" x2="197.898" y2="365.839" gradientUnits="userSpaceOnUse">
<stop stop-color="#E1473D"/>
<stop offset="1" stop-color="#E9605A"/>
</linearGradient>
<linearGradient id="paint7_linear_4_4068" x1="488.176" y1="-196.591" x2="412.162" y2="-71.1504" gradientUnits="userSpaceOnUse">
<stop stop-color="#4042E2"/>
<stop offset="1" stop-color="#4F52FF"/>
</linearGradient>
<linearGradient id="paint8_linear_4_4068" x1="413.062" y1="-147.661" x2="370.247" y2="-56.1716" gradientUnits="userSpaceOnUse">
<stop stop-color="#09005D"/>
<stop offset="1" stop-color="#1A0F91"/>
</linearGradient>
<linearGradient id="paint9_linear_4_4068" x1="269.977" y1="130.743" x2="287.383" y2="44.9547" gradientUnits="userSpaceOnUse">
<stop stop-color="#E1473D"/>
<stop offset="1" stop-color="#E9605A"/>
</linearGradient>
<linearGradient id="paint10_linear_4_4068" x1="333.832" y1="353.186" x2="415.834" y2="452.455" gradientUnits="userSpaceOnUse">
<stop stop-color="#4042E2"/>
<stop offset="1" stop-color="#4F52FF"/>
</linearGradient>
<linearGradient id="paint11_linear_4_4068" x1="363.891" y1="359.908" x2="355.666" y2="359.908" gradientUnits="userSpaceOnUse">
<stop stop-color="#FF928E"/>
<stop offset="1" stop-color="#FEB3B1"/>
</linearGradient>
<linearGradient id="paint12_linear_4_4068" x1="383.397" y1="303.394" x2="356.198" y2="303.394" gradientUnits="userSpaceOnUse">
<stop stop-color="#09005D"/>
<stop offset="1" stop-color="#1A0F91"/>
</linearGradient>
<linearGradient id="paint13_linear_4_4068" x1="354.607" y1="336.025" x2="436.609" y2="435.294" gradientUnits="userSpaceOnUse">
<stop stop-color="#4042E2"/>
<stop offset="1" stop-color="#4F52FF"/>
</linearGradient>
<linearGradient id="paint14_linear_4_4068" x1="393.537" y1="359.529" x2="386.435" y2="359.529" gradientUnits="userSpaceOnUse">
<stop stop-color="#FF928E"/>
<stop offset="1" stop-color="#FEB3B1"/>
</linearGradient>
<linearGradient id="paint15_linear_4_4068" x1="401.192" y1="302.594" x2="362.579" y2="302.594" gradientUnits="userSpaceOnUse">
<stop stop-color="#09005D"/>
<stop offset="1" stop-color="#1A0F91"/>
</linearGradient>
<linearGradient id="paint16_linear_4_4068" x1="374.908" y1="185.142" x2="338.331" y2="294.633" gradientUnits="userSpaceOnUse">
<stop stop-color="#4042E2"/>
<stop offset="1" stop-color="#4F52FF"/>
</linearGradient>
<linearGradient id="paint17_linear_4_4068" x1="389.03" y1="167.085" x2="347.006" y2="167.085" gradientUnits="userSpaceOnUse">
<stop stop-color="#FF928E"/>
<stop offset="1" stop-color="#FEB3B1"/>
</linearGradient>
<linearGradient id="paint18_linear_4_4068" x1="308.252" y1="107.569" x2="291.588" y2="133.924" gradientUnits="userSpaceOnUse">
<stop stop-color="#FF928E"/>
<stop offset="1" stop-color="#FEB3B1"/>
</linearGradient>
<linearGradient id="paint19_linear_4_4068" x1="288.219" y1="141.556" x2="278.143" y2="124.314" gradientUnits="userSpaceOnUse">
<stop stop-color="#FF928E"/>
<stop offset="1" stop-color="#FEB3B1"/>
</linearGradient>
<linearGradient id="paint20_linear_4_4068" x1="408.606" y1="196.399" x2="372.029" y2="305.889" gradientUnits="userSpaceOnUse">
<stop stop-color="#4042E2"/>
<stop offset="1" stop-color="#4F52FF"/>
</linearGradient>
<linearGradient id="paint21_linear_4_4068" x1="422" y1="220.57" x2="368.818" y2="220.57" gradientUnits="userSpaceOnUse">
<stop stop-color="#FF928E"/>
<stop offset="1" stop-color="#FEB3B1"/>
</linearGradient>
<linearGradient id="paint22_linear_4_4068" x1="372.766" y1="215.56" x2="356.198" y2="215.56" gradientUnits="userSpaceOnUse">
<stop stop-color="#FF928E"/>
<stop offset="1" stop-color="#FEB3B1"/>
</linearGradient>
<linearGradient id="paint23_linear_4_4068" x1="364.781" y1="152.498" x2="371.989" y2="182.733" gradientUnits="userSpaceOnUse">
<stop stop-color="#FF928E"/>
<stop offset="1" stop-color="#FEB3B1"/>
</linearGradient>
<linearGradient id="paint24_linear_4_4068" x1="381.807" y1="128.155" x2="359.807" y2="167.137" gradientUnits="userSpaceOnUse">
<stop stop-color="#FF928E"/>
<stop offset="1" stop-color="#FEB3B1"/>
</linearGradient>
<linearGradient id="paint25_linear_4_4068" x1="390.492" y1="131.441" x2="363.134" y2="155.49" gradientUnits="userSpaceOnUse">
<stop stop-color="#09005D"/>
<stop offset="1" stop-color="#1A0F91"/>
</linearGradient>
<linearGradient id="paint26_linear_4_4068" x1="389.065" y1="132.25" x2="367.065" y2="171.233" gradientUnits="userSpaceOnUse">
<stop stop-color="#FF928E"/>
<stop offset="1" stop-color="#FEB3B1"/>
</linearGradient>
<clipPath id="clip0_4_4068">
<rect width="422" height="377" rx="8" fill="white"/>
</clipPath>
</defs>
</svg>
